<svg xmlns="http://www.w3.org/2000/svg" xmlns:xlink="http://www.w3.org/1999/xlink" width="100" zoomAndPan="magnify" viewBox="0 0 75 48.75" height="65" preserveAspectRatio="xMidYMid meet" version="1.0"><defs><clipPath id="7bc9d1e8b0"><path d="M 1.414062 28 L 72 28 L 72 38.492188 L 1.414062 38.492188 Z M 1.414062 28 " clip-rule="nonzero"/></clipPath><clipPath id="0c66ae7958"><path d="M 21 3.421875 L 54 3.421875 L 54 31 L 21 31 Z M 21 3.421875 " clip-rule="nonzero"/></clipPath><clipPath id="2ad18f82b0"><path d="M 20.246094 33.289062 L 53.207031 33.289062 L 53.207031 43.652344 L 20.246094 43.652344 Z M 20.246094 33.289062 " clip-rule="nonzero"/></clipPath><clipPath id="e1173501c1"><path d="M 7.125 3.421875 L 33.238281 3.421875 L 33.238281 41.476562 L 7.125 41.476562 Z M 7.125 3.421875 " clip-rule="nonzero"/></clipPath></defs><g clip-path="url(#7bc9d1e8b0)"><path fill="#231f20" d="M 71.765625 34.675781 C 70.78125 32.070312 68.921875 30.515625 66.128906 30.121094 C 63.882812 29.804688 61.640625 29.488281 59.398438 29.167969 C 58.507812 29.042969 57.628906 28.886719 56.761719 28.691406 L 56.761719 31.042969 C 58.3125 31.269531 59.875 31.460938 61.433594 31.695312 C 62.976562 31.921875 64.519531 32.167969 66.0625 32.417969 C 67.09375 32.585938 67.574219 33.382812 68.148438 34.242188 L 5.546875 34.242188 C 6.121094 33.367188 6.613281 32.578125 7.648438 32.414062 C 8.921875 32.207031 10.195312 32.007812 11.46875 31.808594 C 13.6875 31.464844 15.917969 31.179688 18.136719 30.816406 L 18.136719 28.410156 C 16.671875 28.792969 15.183594 29.054688 13.683594 29.269531 C 11.65625 29.5625 9.621094 29.835938 7.589844 30.109375 C 5.371094 30.410156 3.679688 31.496094 2.554688 33.441406 C 2.027344 34.363281 1.609375 35.3125 1.839844 36.410156 C 1.992188 37.140625 2.414062 37.636719 3.164062 37.832031 C 4.300781 38.128906 5.378906 37.332031 5.320312 36.226562 C 5.304688 36.035156 5.25 35.84375 5.199219 35.589844 C 6.023438 35.589844 6.808594 35.585938 7.589844 35.597656 C 7.660156 35.601562 7.789062 35.699219 7.792969 35.761719 C 7.824219 36.144531 7.863281 36.53125 7.824219 36.90625 C 7.789062 37.214844 7.558594 37.414062 7.234375 37.269531 C 6.941406 37.140625 6.976562 36.925781 7.144531 36.675781 C 7.339844 36.382812 7.207031 36.191406 6.847656 36.175781 C 6.453125 36.160156 6.15625 36.496094 6.144531 36.980469 C 6.128906 37.523438 6.472656 37.992188 7.019531 38.171875 C 7.609375 38.367188 8.28125 38.191406 8.550781 37.636719 C 8.785156 37.164062 8.921875 36.617188 8.980469 36.089844 C 9.027344 35.675781 9.148438 35.578125 9.546875 35.578125 C 14.996094 35.582031 20.449219 35.558594 25.902344 35.558594 C 30.652344 35.558594 35.402344 35.582031 40.152344 35.582031 C 48.128906 35.589844 56.109375 35.589844 64.085938 35.574219 C 64.542969 35.574219 64.652344 35.710938 64.691406 36.144531 C 64.734375 36.632812 64.847656 37.144531 65.070312 37.574219 C 65.433594 38.292969 66.34375 38.453125 67 38 C 67.5625 37.609375 67.710938 36.664062 67.226562 36.332031 C 67.140625 36.273438 67.019531 36.257812 66.894531 36.257812 C 66.644531 36.257812 66.457031 36.527344 66.574219 36.75 C 66.699219 36.984375 66.667969 37.1875 66.453125 37.246094 C 66.328125 37.28125 66.164062 37.234375 66.046875 37.183594 C 65.925781 37.128906 65.925781 37.042969 65.921875 36.921875 C 65.910156 36.769531 65.878906 36.613281 65.875 36.460938 C 65.871094 36.230469 65.878906 36 65.902344 35.769531 C 65.921875 35.601562 66.269531 35.625 66.394531 35.613281 C 66.589844 35.601562 66.910156 35.585938 67.109375 35.585938 L 68.558594 35.585938 C 68.523438 35.761719 68.503906 35.855469 68.484375 35.949219 C 68.277344 37.054688 69.148438 38.109375 70.167969 37.964844 C 70.792969 37.878906 71.304688 37.582031 71.640625 37.035156 C 72.105469 36.273438 72.058594 35.460938 71.765625 34.675781 " fill-opacity="1" fill-rule="nonzero"/></g><path fill="#231f20" d="M 55.757812 28.453125 C 55.40625 28.367188 55.054688 28.269531 54.703125 28.167969 L 54.703125 30.714844 C 55.054688 30.777344 55.40625 30.835938 55.757812 30.890625 L 55.757812 28.453125 " fill-opacity="1" fill-rule="nonzero"/><path fill="#231f20" d="M 20.191406 27.78125 C 20.046875 27.828125 19.90625 27.878906 19.765625 27.925781 C 19.558594 27.996094 19.347656 28.0625 19.136719 28.125 L 19.136719 30.644531 C 19.488281 30.582031 19.839844 30.519531 20.191406 30.453125 L 20.191406 27.78125 " fill-opacity="1" fill-rule="nonzero"/><g clip-path="url(#0c66ae7958)"><path fill="#231f20" d="M 32.972656 20.546875 C 32.972656 20.167969 33.28125 19.863281 33.660156 19.863281 L 38.753906 19.863281 C 39.132812 19.863281 39.441406 20.167969 39.441406 20.546875 L 39.441406 22.113281 C 39.441406 22.492188 39.132812 22.796875 38.753906 22.796875 L 33.660156 22.796875 C 33.28125 22.796875 32.972656 22.492188 32.972656 22.113281 Z M 31.855469 24.691406 C 32.488281 24.222656 33.210938 24.074219 34.007812 24.089844 C 35.640625 24.117188 37.289062 24.203125 38.90625 24.046875 C 40.613281 23.882812 41.957031 24.480469 43.132812 25.550781 C 46.15625 28.300781 49.785156 29.753906 53.703125 30.53125 L 53.703125 27.851562 C 52.542969 27.464844 51.402344 27.003906 50.289062 26.457031 C 48.746094 25.691406 47.210938 24.917969 46.113281 23.515625 C 45.195312 22.335938 44.09375 21.351562 42.859375 20.488281 C 42.1875 20.019531 41.476562 19.601562 40.703125 19.316406 C 40.3125 19.175781 39.910156 19.0625 39.496094 18.996094 C 39.203125 18.949219 38.734375 19.007812 38.613281 18.65625 C 38.414062 18.089844 38.351562 17.503906 38.605469 16.941406 C 39.105469 15.835938 39.589844 14.71875 40.152344 13.644531 C 40.914062 12.1875 41.78125 10.785156 42.242188 9.1875 C 42.925781 6.816406 41.824219 4.6875 39.496094 3.882812 C 38.386719 3.5 37.265625 3.402344 36.109375 3.664062 C 34.539062 4.015625 33.378906 4.890625 32.804688 6.378906 C 32.433594 7.34375 32.273438 8.386719 31.984375 9.386719 C 31.910156 9.644531 31.765625 9.921875 31.570312 10.097656 C 31.191406 10.4375 31.0625 10.847656 31.308594 11.261719 C 31.542969 11.667969 31.945312 11.765625 32.429688 11.539062 C 33.070312 11.234375 33.4375 10.691406 33.636719 10.050781 C 33.90625 9.191406 34.085938 8.304688 34.363281 7.449219 C 34.742188 6.277344 35.667969 5.597656 36.90625 5.550781 C 37.34375 5.535156 37.800781 5.566406 38.230469 5.652344 C 39.867188 5.992188 40.523438 7.167969 39.949219 8.722656 C 39.789062 9.164062 39.601562 9.605469 39.367188 10.011719 C 38.550781 11.421875 37.675781 12.800781 36.882812 14.226562 C 36.390625 15.109375 35.925781 16.011719 35.460938 16.914062 C 35.234375 17.355469 35.003906 17.796875 34.773438 18.234375 C 34.589844 18.582031 34.488281 18.816406 34.089844 18.933594 C 33.453125 19.125 32.835938 19.195312 32.238281 19.503906 C 31.625 19.820312 31.074219 20.230469 30.523438 20.636719 C 29.769531 21.191406 29.0625 21.8125 28.433594 22.503906 C 27.730469 23.273438 27.070312 24.113281 26.253906 24.746094 C 24.722656 25.933594 22.992188 26.75 21.191406 27.421875 L 21.191406 30.25 C 24.132812 29.617188 26.902344 28.464844 29.339844 26.628906 C 30.1875 25.992188 31.003906 25.320312 31.855469 24.691406 " fill-opacity="1" fill-rule="nonzero"/></g><g clip-path="url(#2ad18f82b0)"><path fill="#fffafa" d="M 20.246094 33.289062 L 53.289062 33.289062 L 53.289062 43.515625 L 20.246094 43.515625 Z M 20.246094 33.289062 " fill-opacity="1" fill-rule="nonzero"/></g><g clip-path="url(#e1173501c1)"><path fill="#231f20" d="M 26.957031 29.582031 C 27.03125 29.589844 27.101562 29.609375 27.105469 29.597656 C 27.148438 29.496094 27.183594 29.386719 27.21875 29.28125 C 27.199219 29.273438 27.183594 29.269531 27.164062 29.261719 C 27.105469 29.355469 27.042969 29.449219 26.957031 29.582031 Z M 17.65625 6.132812 C 17.667969 6.160156 17.675781 6.183594 17.6875 6.210938 C 17.890625 6.136719 18.097656 6.0625 18.300781 5.992188 C 18.296875 5.980469 18.292969 5.96875 18.289062 5.957031 C 18.078125 6.015625 17.867188 6.074219 17.65625 6.132812 Z M 17.429688 5.875 C 17.199219 5.707031 16.960938 5.757812 16.707031 5.757812 C 16.867188 5.957031 17.152344 6.003906 17.429688 5.875 Z M 15.335938 33.40625 C 15.34375 33.390625 15.347656 33.371094 15.355469 33.355469 C 15.101562 33.261719 14.851562 33.167969 14.601562 33.074219 C 14.75 33.429688 15.046875 33.40625 15.335938 33.40625 Z M 22.453125 11.710938 C 22.683594 11.566406 22.722656 11.328125 22.578125 11.054688 C 22.523438 11.066406 22.472656 11.078125 22.402344 11.09375 C 22.417969 11.296875 22.433594 11.492188 22.453125 11.710938 Z M 20.421875 13.152344 C 20.011719 13.257812 19.601562 13.363281 19.195312 13.464844 C 19.199219 13.480469 19.203125 13.5 19.207031 13.515625 C 19.65625 13.5625 20.050781 13.410156 20.421875 13.152344 Z M 7.566406 39.164062 C 7.539062 39.265625 7.507812 39.367188 7.492188 39.472656 C 7.484375 39.515625 7.5 39.578125 7.53125 39.609375 C 7.742188 39.800781 7.988281 39.9375 8.28125 39.984375 C 8.191406 39.882812 8.097656 39.769531 7.980469 39.722656 C 7.710938 39.625 7.570312 39.453125 7.566406 39.164062 Z M 19.488281 10.996094 C 19.851562 10.84375 20.199219 10.703125 20.5625 10.550781 C 20.167969 10.363281 19.613281 10.65625 19.488281 10.996094 Z M 20.582031 9.800781 C 20.441406 9.835938 20.300781 9.867188 20.160156 9.910156 C 19.851562 10.007812 19.554688 10.128906 19.308594 10.351562 C 19.179688 10.472656 19.179688 10.539062 19.296875 10.644531 C 19.644531 10.242188 20.117188 10.039062 20.582031 9.800781 Z M 17.59375 4.140625 C 17.574219 4.152344 17.550781 4.164062 17.527344 4.175781 C 17.617188 4.394531 17.695312 4.613281 17.800781 4.820312 C 17.839844 4.894531 17.941406 4.945312 18.027344 4.984375 C 18.066406 5.003906 18.140625 4.980469 18.175781 4.949219 C 18.203125 4.925781 18.210938 4.847656 18.191406 4.8125 C 18.054688 4.535156 17.875 4.292969 17.59375 4.140625 Z M 12.921875 25.734375 C 12.980469 25.949219 13.109375 26.046875 13.335938 26.058594 C 13.828125 26.082031 14.324219 26.105469 14.820312 26.128906 C 14.914062 26.132812 15.007812 26.148438 15.097656 26.160156 C 14.378906 26.007812 13.679688 25.773438 12.921875 25.734375 Z M 29.386719 23.449219 C 29.585938 23.308594 30.050781 21.746094 29.996094 21.449219 C 29.738281 21.839844 29.335938 23.148438 29.386719 23.449219 Z M 15.003906 19.5 C 14.988281 19.496094 14.972656 19.492188 14.957031 19.488281 C 14.53125 20.523438 14.550781 21.613281 14.574219 22.707031 C 14.71875 21.632812 14.859375 20.566406 15.003906 19.5 Z M 16.980469 10.90625 C 17.128906 11.15625 17.253906 11.375 17.386719 11.589844 C 17.402344 11.613281 17.445312 11.636719 17.46875 11.632812 C 17.832031 11.566406 18.199219 11.5 18.578125 11.425781 C 18.480469 11.191406 18.359375 10.945312 18.089844 10.914062 C 17.738281 10.875 17.378906 10.90625 16.980469 10.90625 Z M 27.9375 26.425781 C 28.066406 26.332031 28.171875 26.238281 28.296875 26.171875 C 28.996094 25.792969 29.742188 25.554688 30.523438 25.40625 C 30.75 25.363281 30.972656 25.3125 31.199219 25.265625 C 31.195312 25.242188 31.195312 25.21875 31.191406 25.195312 C 30.921875 25.207031 30.644531 25.1875 30.378906 25.238281 C 29.617188 25.386719 28.859375 25.570312 28.136719 25.867188 C 28.019531 25.917969 27.898438 25.960938 27.773438 26.011719 C 27.835938 26.164062 27.886719 26.296875 27.9375 26.425781 Z M 17.453125 4.007812 C 17.476562 3.742188 17.457031 3.714844 17.214844 3.726562 C 17.136719 3.730469 17.054688 3.746094 16.984375 3.777344 C 16.476562 4 16.128906 4.617188 16.230469 5.214844 C 16.257812 5.386719 16.3125 5.570312 16.527344 5.632812 C 16.527344 5.546875 16.519531 5.476562 16.527344 5.40625 C 16.585938 4.976562 16.761719 4.597656 16.996094 4.246094 C 17.101562 4.085938 17.230469 3.960938 17.453125 4.007812 Z M 27.027344 16.453125 C 27 16.445312 26.972656 16.4375 26.945312 16.429688 C 26.890625 16.546875 26.804688 16.660156 26.78125 16.785156 C 26.667969 17.449219 26.5625 18.113281 26.472656 18.78125 C 26.429688 19.074219 26.417969 19.371094 26.410156 19.664062 C 26.398438 19.984375 26.40625 20.308594 26.40625 20.628906 C 26.691406 19.246094 26.921875 17.859375 27.027344 16.453125 Z M 9.410156 32.832031 C 9.386719 32.828125 9.363281 32.824219 9.335938 32.820312 C 8.53125 34.742188 8.171875 36.792969 7.667969 38.800781 C 7.703125 38.753906 7.71875 38.699219 7.734375 38.648438 C 8 37.734375 8.257812 36.820312 8.539062 35.914062 C 8.765625 35.179688 9.035156 34.460938 9.257812 33.722656 C 9.347656 33.4375 9.363281 33.128906 9.410156 32.832031 Z M 27.289062 28.875 C 27.300781 28.878906 27.3125 28.886719 27.324219 28.890625 C 27.550781 28.605469 27.773438 28.320312 28.003906 28.039062 C 28.136719 27.878906 28.15625 27.695312 28.117188 27.507812 C 28.050781 27.214844 27.980469 26.921875 27.902344 26.632812 C 27.863281 26.484375 27.804688 26.34375 27.753906 26.199219 C 27.738281 26.203125 27.722656 26.207031 27.707031 26.210938 C 27.566406 27.097656 27.425781 27.988281 27.289062 28.875 Z M 9.035156 29.226562 C 9.804688 28.019531 10.542969 26.835938 11.480469 25.734375 C 10.480469 26.078125 8.855469 28.578125 9.035156 29.226562 Z M 13.890625 22.847656 C 13.242188 21.300781 11.207031 21.15625 10.183594 21.738281 C 10.621094 21.769531 11.035156 21.789062 11.449219 21.839844 C 11.839844 21.886719 12.234375 21.949219 12.621094 22.035156 C 13.125 22.144531 13.488281 22.496094 13.890625 22.847656 Z M 17.496094 3.851562 C 17.539062 3.933594 17.554688 4.039062 17.605469 4.058594 C 17.90625 4.191406 18.078125 4.453125 18.234375 4.714844 C 18.277344 4.789062 18.269531 4.949219 18.214844 5 C 18.160156 5.054688 18.023438 5.039062 17.925781 5.03125 C 17.878906 5.027344 17.832031 4.972656 17.789062 4.933594 C 17.605469 4.746094 17.546875 4.503906 17.503906 4.253906 C 17.464844 4.054688 17.347656 4.007812 17.191406 4.136719 C 17.160156 4.160156 17.132812 4.191406 17.109375 4.222656 C 16.839844 4.558594 16.695312 4.953125 16.605469 5.367188 C 16.550781 5.613281 16.628906 5.679688 16.882812 5.695312 C 17.058594 5.703125 17.253906 5.710938 17.40625 5.785156 C 17.523438 5.84375 17.589844 5.84375 17.695312 5.800781 C 18.0625 5.648438 18.429688 5.492188 18.800781 5.355469 C 19.03125 5.273438 19.035156 5.285156 18.984375 5.054688 C 18.960938 4.9375 18.925781 4.824219 18.90625 4.707031 C 18.847656 4.371094 18.640625 4.191406 18.3125 4.148438 C 18.253906 4.140625 18.195312 4.140625 18.144531 4.121094 C 17.941406 4.039062 17.738281 3.953125 17.496094 3.851562 Z M 19.371094 11.054688 C 19.417969 10.980469 19.457031 10.90625 19.503906 10.835938 C 19.710938 10.527344 20.207031 10.34375 20.511719 10.464844 C 20.703125 10.539062 20.945312 10.464844 21.078125 10.296875 C 21.234375 10.097656 21.394531 9.894531 21.550781 9.695312 C 21.691406 9.519531 21.640625 9.300781 21.453125 9.167969 C 21.324219 9.074219 21.207031 8.953125 21.105469 8.824219 C 20.988281 8.679688 20.910156 8.5 20.789062 8.363281 C 20.707031 8.269531 20.582031 8.183594 20.46875 8.164062 C 20.25 8.132812 20.023438 8.132812 19.808594 8.160156 C 19.265625 8.226562 18.734375 8.335938 18.222656 8.53125 C 18.0625 8.59375 17.882812 8.628906 17.710938 8.632812 C 17.421875 8.636719 17.144531 8.667969 16.878906 8.78125 C 16.65625 8.875 16.542969 9.058594 16.59375 9.285156 C 16.695312 9.746094 16.820312 10.207031 16.921875 10.667969 C 16.957031 10.832031 17.042969 10.859375 17.1875 10.847656 C 17.390625 10.828125 17.597656 10.816406 17.800781 10.8125 C 18.167969 10.804688 18.433594 10.976562 18.585938 11.308594 C 18.605469 11.347656 18.628906 11.386719 18.648438 11.425781 C 18.738281 11.398438 18.820312 11.382812 18.898438 11.351562 C 18.980469 11.316406 19.0625 11.265625 19.136719 11.214844 C 19.210938 11.167969 19.324219 11.148438 19.28125 11.003906 C 19.25 10.914062 19.28125 10.796875 19.238281 10.71875 C 19.113281 10.492188 19.125 10.425781 19.324219 10.261719 C 19.644531 9.992188 20.027344 9.871094 20.421875 9.78125 C 20.542969 9.753906 20.667969 9.753906 20.789062 9.742188 C 20.792969 9.765625 20.800781 9.789062 20.804688 9.8125 C 20.753906 9.832031 20.703125 9.855469 20.648438 9.875 C 20.242188 10.027344 19.859375 10.226562 19.519531 10.496094 C 19.332031 10.644531 19.269531 10.855469 19.371094 11.054688 Z M 21.710938 9.492188 C 21.75 9.445312 21.773438 9.414062 21.800781 9.386719 C 21.933594 9.265625 22.054688 9.125 22.203125 9.027344 C 22.300781 8.960938 22.332031 8.898438 22.308594 8.789062 C 22.265625 8.570312 22.222656 8.347656 22.179688 8.125 C 22.039062 7.394531 21.792969 6.734375 21.148438 6.285156 C 20.53125 5.859375 19.871094 5.664062 19.132812 5.855469 C 18.667969 5.976562 18.21875 6.132812 17.761719 6.265625 C 17.714844 6.28125 17.65625 6.253906 17.601562 6.25 C 17.628906 6.179688 17.636719 6.082031 17.6875 6.042969 C 17.75 5.992188 17.847656 5.992188 17.929688 5.96875 C 18.304688 5.851562 18.679688 5.746094 19.050781 5.617188 C 19.292969 5.527344 19.382812 5.394531 19.355469 5.179688 C 19.300781 4.691406 19.175781 4.21875 18.90625 3.796875 C 18.84375 3.703125 18.71875 3.609375 18.613281 3.589844 C 18.390625 3.558594 18.160156 3.566406 17.933594 3.578125 C 17.847656 3.582031 17.757812 3.621094 17.675781 3.65625 C 17.566406 3.707031 17.5625 3.757812 17.667969 3.839844 C 17.882812 4.003906 18.128906 4.070312 18.390625 4.113281 C 18.683594 4.160156 18.878906 4.308594 18.941406 4.609375 C 18.96875 4.75 19.011719 4.882812 19.046875 5.023438 C 19.121094 5.324219 19.097656 5.339844 18.800781 5.445312 C 18.375 5.597656 17.957031 5.773438 17.527344 5.941406 C 17.621094 6.183594 17.515625 6.3125 17.355469 6.445312 C 17.007812 6.726562 16.65625 7.003906 16.421875 7.394531 C 16.167969 7.820312 16.007812 8.265625 16.234375 8.765625 C 16.292969 8.894531 16.324219 9.042969 16.355469 9.183594 C 16.398438 9.371094 16.410156 9.566406 16.464844 9.75 C 16.554688 10.035156 16.667969 10.316406 16.769531 10.597656 C 16.785156 10.589844 16.800781 10.585938 16.816406 10.578125 C 16.808594 10.542969 16.804688 10.503906 16.792969 10.46875 C 16.707031 10.074219 16.613281 9.683594 16.53125 9.292969 C 16.488281 9.0625 16.589844 8.855469 16.800781 8.753906 C 16.933594 8.691406 17.074219 8.632812 17.21875 8.617188 C 17.679688 8.574219 18.148438 8.570312 18.574219 8.339844 C 18.578125 8.335938 18.582031 8.339844 18.589844 8.339844 C 19.023438 8.253906 19.453125 8.152344 19.890625 8.089844 C 20.496094 8.003906 20.738281 8.105469 20.996094 8.546875 C 21.042969 8.625 21.085938 8.703125 21.140625 8.777344 C 21.210938 8.871094 21.273438 8.992188 21.371094 9.046875 C 21.542969 9.148438 21.667969 9.269531 21.710938 9.492188 Z M 29.496094 37.171875 C 29.523438 37.128906 29.550781 37.085938 29.582031 37.046875 C 29.820312 36.777344 30.039062 36.488281 30.300781 36.242188 C 31.214844 35.390625 31.925781 34.382812 32.574219 33.320312 C 33.023438 32.585938 33.09375 31.796875 33.042969 30.972656 C 33.019531 30.625 32.984375 30.269531 33.023438 29.925781 C 33.085938 29.367188 33.085938 28.8125 33.003906 28.257812 C 32.921875 27.65625 32.808594 27.0625 32.699219 26.464844 C 32.640625 26.152344 32.578125 25.839844 32.359375 25.585938 C 32.136719 25.328125 31.917969 25.0625 31.707031 24.792969 C 31.601562 24.664062 31.527344 24.519531 31.550781 24.339844 C 31.597656 23.976562 31.585938 23.625 31.429688 23.273438 C 31.148438 22.644531 30.871094 22.011719 30.425781 21.476562 C 30.347656 21.386719 30.246094 21.316406 30.160156 21.238281 C 30.039062 21.730469 29.933594 22.1875 29.8125 22.640625 C 29.746094 22.890625 29.660156 23.136719 29.5625 23.375 C 29.535156 23.4375 29.433594 23.472656 29.371094 23.515625 C 29.347656 23.441406 29.292969 23.359375 29.304688 23.289062 C 29.4375 22.613281 29.636719 21.960938 29.953125 21.34375 C 30 21.25 30.019531 21.109375 29.984375 21.011719 C 29.867188 20.644531 29.726562 20.285156 29.589844 19.921875 C 29.539062 19.78125 29.484375 19.640625 29.425781 19.484375 C 29.394531 19.519531 29.378906 19.53125 29.367188 19.550781 C 29.328125 19.613281 29.289062 19.675781 29.253906 19.742188 C 28.644531 20.84375 28.339844 22.035156 28.1875 23.273438 C 28.117188 23.832031 28.019531 24.382812 27.933594 24.941406 C 27.882812 25.257812 27.828125 25.574219 27.777344 25.902344 C 27.816406 25.894531 27.847656 25.890625 27.871094 25.882812 C 28.582031 25.566406 29.332031 25.382812 30.082031 25.214844 C 30.46875 25.128906 30.859375 25.085938 31.253906 25.164062 C 31.289062 25.171875 31.316406 25.203125 31.347656 25.21875 C 31.324219 25.253906 31.300781 25.304688 31.269531 25.3125 C 31.117188 25.359375 30.960938 25.402344 30.804688 25.429688 C 30.078125 25.550781 29.375 25.742188 28.703125 26.050781 C 28.492188 26.148438 28.292969 26.273438 28.097656 26.398438 C 28.007812 26.453125 27.980469 26.535156 28.101562 26.609375 C 28.316406 26.742188 28.519531 26.90625 28.746094 27.023438 C 29.820312 27.574219 30.78125 28.285156 31.65625 29.113281 C 31.800781 29.25 31.925781 29.40625 32.035156 29.570312 C 32.117188 29.6875 32.066406 29.773438 31.933594 29.753906 C 31.785156 29.730469 31.625 29.691406 31.511719 29.605469 C 31.199219 29.371094 30.914062 29.109375 30.613281 28.859375 C 30.28125 28.582031 29.953125 28.300781 29.542969 28.132812 C 29.46875 28.105469 29.390625 28.089844 29.3125 28.066406 C 29.355469 28.164062 29.410156 28.226562 29.46875 28.285156 C 29.71875 28.523438 29.980469 28.746094 30.214844 28.996094 C 30.914062 29.738281 31.601562 30.488281 32.285156 31.242188 C 32.425781 31.394531 32.566406 31.554688 32.648438 31.738281 C 32.78125 32.035156 32.644531 32.324219 32.492188 32.578125 C 32.140625 33.167969 31.78125 33.757812 31.398438 34.332031 C 31.105469 34.765625 30.792969 35.191406 30.445312 35.582031 C 30.042969 36.042969 29.808594 36.046875 29.296875 35.699219 C 29.183594 35.625 29.074219 35.539062 28.964844 35.460938 C 28.929688 35.4375 28.894531 35.417969 28.882812 35.414062 C 29.082031 35.980469 29.28125 36.554688 29.496094 37.171875 Z M 15.355469 26.097656 C 15.324219 26.011719 15.304688 25.953125 15.285156 25.898438 C 15.15625 25.574219 15.027344 25.253906 14.902344 24.929688 C 14.644531 24.257812 14.46875 23.570312 14.503906 22.835938 C 14.535156 22.238281 14.523438 21.636719 14.546875 21.039062 C 14.570312 20.503906 14.691406 19.984375 14.890625 19.484375 C 14.914062 19.425781 14.960938 19.375 15 19.316406 C 15.050781 19.390625 15.078125 19.445312 15.070312 19.5 C 15.039062 19.792969 14.996094 20.085938 14.957031 20.378906 C 14.898438 20.816406 14.832031 21.253906 14.777344 21.691406 C 14.730469 22.070312 14.710938 22.453125 14.664062 22.832031 C 14.601562 23.332031 14.585938 23.824219 14.769531 24.308594 C 14.980469 24.855469 15.183594 25.402344 15.386719 25.949219 C 15.417969 26.035156 15.492188 26.140625 15.316406 26.171875 C 15.550781 26.234375 15.632812 26.289062 15.773438 26.507812 C 16.007812 26.875 16.242188 27.238281 16.460938 27.613281 C 16.601562 27.855469 16.722656 28.113281 16.839844 28.367188 C 16.902344 28.5 17.09375 28.640625 17.234375 28.589844 C 17.296875 28.570312 17.320312 28.441406 17.355469 28.359375 C 17.375 28.316406 17.375 28.269531 17.386719 28.226562 C 17.609375 27.289062 17.773438 26.347656 17.746094 25.375 C 17.726562 24.824219 17.753906 24.265625 17.824219 23.71875 C 17.910156 23.039062 17.984375 22.363281 17.878906 21.679688 C 17.78125 21.019531 17.675781 20.359375 17.542969 19.703125 C 17.417969 19.078125 17.253906 18.464844 17.292969 17.816406 C 17.328125 17.230469 17.28125 16.644531 17.160156 16.070312 C 17.042969 15.527344 16.933594 14.984375 16.8125 14.441406 C 16.765625 14.238281 16.734375 14.226562 16.535156 14.273438 C 16.457031 14.292969 16.378906 14.304688 16.300781 14.328125 C 15.578125 14.550781 14.871094 14.808594 14.207031 15.175781 C 13.273438 15.691406 12.445312 16.316406 11.933594 17.289062 C 11.894531 17.363281 11.804688 17.410156 11.734375 17.464844 C 11.503906 17.640625 11.246094 17.792969 11.050781 18 C 10.464844 18.601562 10.0625 19.335938 9.597656 20.027344 C 9.246094 20.546875 9.371094 21.015625 9.652344 21.492188 C 9.765625 21.683594 9.957031 21.726562 10.167969 21.640625 C 10.804688 21.371094 11.464844 21.289062 12.152344 21.421875 C 12.960938 21.578125 13.535156 22.023438 13.917969 22.738281 C 13.945312 22.789062 13.945312 22.851562 13.957031 22.90625 C 13.941406 22.914062 13.925781 22.921875 13.910156 22.925781 C 13.871094 22.898438 13.828125 22.875 13.789062 22.84375 C 13.632812 22.71875 13.484375 22.585938 13.324219 22.460938 C 12.757812 22.03125 12.082031 21.960938 11.40625 21.894531 C 10.996094 21.855469 10.589844 21.824219 10.179688 21.796875 C 10.082031 21.792969 9.96875 21.8125 9.886719 21.863281 C 9.507812 22.089844 9.226562 22.398438 9.125 22.847656 C 9.09375 22.984375 9.046875 23.117188 9.003906 23.253906 C 8.691406 24.230469 8.320312 25.183594 8.257812 26.226562 C 8.214844 26.976562 8.246094 27.707031 8.496094 28.414062 C 8.578125 28.660156 8.714844 28.882812 8.902344 29.066406 C 8.980469 28.84375 9.039062 28.632812 9.125 28.433594 C 9.480469 27.644531 9.972656 26.945312 10.566406 26.320312 C 10.789062 26.085938 11.078125 25.90625 11.34375 25.710938 C 11.402344 25.667969 11.488281 25.664062 11.558594 25.644531 C 11.558594 25.722656 11.539062 25.757812 11.515625 25.789062 C 11.339844 26.007812 11.148438 26.214844 10.988281 26.441406 C 10.398438 27.300781 9.820312 28.167969 9.234375 29.027344 C 9.171875 29.121094 9.085938 29.203125 9.015625 29.292969 C 8.992188 29.292969 8.972656 29.289062 8.953125 29.289062 C 9.015625 29.433594 9.0625 29.585938 9.140625 29.714844 C 9.292969 29.960938 9.46875 30.195312 9.628906 30.4375 C 10.546875 31.828125 11.445312 33.238281 12.734375 34.335938 C 13.0625 34.617188 13.375 34.941406 13.839844 34.96875 C 14.132812 34.988281 14.433594 34.972656 14.726562 34.953125 C 15.210938 34.914062 15.585938 34.695312 15.894531 34.300781 C 16.589844 33.40625 17.3125 32.539062 18.027344 31.660156 C 18.191406 31.457031 18.394531 31.269531 18.414062 30.992188 C 18.445312 30.539062 18.457031 30.082031 18.453125 29.628906 C 18.453125 29.535156 18.378906 29.425781 18.304688 29.351562 C 18.160156 29.207031 17.992188 29.085938 17.839844 28.945312 C 17.683594 28.804688 17.636719 28.347656 17.761719 28.179688 C 17.789062 28.148438 17.847656 28.125 17.894531 28.121094 C 18.304688 28.09375 18.714844 28.070312 19.125 28.050781 C 19.960938 28.015625 20.796875 27.976562 21.628906 27.949219 C 22.027344 27.9375 22.429688 27.953125 22.828125 27.949219 C 23.4375 27.941406 24.023438 27.8125 24.605469 27.652344 C 25.066406 27.527344 25.523438 27.398438 25.984375 27.277344 C 26.242188 27.210938 26.398438 27.265625 26.460938 27.449219 C 26.621094 27.90625 26.746094 28.371094 26.777344 28.855469 C 26.800781 29.207031 26.8125 29.5625 26.851562 29.914062 C 26.894531 30.359375 27.015625 30.78125 27.332031 31.125 C 27.4375 31.242188 27.523438 31.382812 27.613281 31.511719 C 28.035156 32.117188 28.40625 32.753906 28.546875 33.488281 C 28.636719 33.976562 28.691406 34.464844 28.777344 34.953125 C 28.800781 35.078125 28.835938 35.230469 28.921875 35.308594 C 29.167969 35.523438 29.425781 35.742188 29.753906 35.828125 C 29.890625 35.863281 30.03125 35.878906 30.140625 35.769531 C 30.3125 35.601562 30.5 35.441406 30.636719 35.25 C 31.058594 34.675781 31.476562 34.097656 31.859375 33.496094 C 32.125 33.082031 32.355469 32.640625 32.5625 32.195312 C 32.671875 31.96875 32.613281 31.730469 32.433594 31.53125 C 32.074219 31.128906 31.734375 30.710938 31.371094 30.316406 C 30.9375 29.84375 30.488281 29.386719 30.039062 28.933594 C 29.8125 28.703125 29.570312 28.492188 29.34375 28.269531 C 29.273438 28.199219 29.230469 28.105469 29.175781 28.023438 C 29.191406 28.003906 29.207031 27.984375 29.222656 27.964844 C 29.339844 28 29.460938 28.023438 29.574219 28.070312 C 30.046875 28.265625 30.421875 28.601562 30.804688 28.925781 C 31.046875 29.132812 31.285156 29.347656 31.535156 29.546875 C 31.664062 29.648438 31.804688 29.742188 32.023438 29.667969 C 31.945312 29.558594 31.890625 29.453125 31.8125 29.371094 C 30.953125 28.515625 30.003906 27.785156 28.933594 27.210938 C 28.65625 27.0625 28.398438 26.886719 28.128906 26.722656 C 28.097656 26.703125 28.066406 26.6875 28.003906 26.648438 C 28.0625 26.898438 28.117188 27.113281 28.167969 27.324219 C 28.238281 27.601562 28.269531 27.875 28.054688 28.117188 C 27.941406 28.242188 27.835938 28.378906 27.734375 28.515625 C 27.535156 28.792969 27.234375 29.015625 27.28125 29.414062 C 27.289062 29.464844 27.25 29.523438 27.226562 29.574219 C 27.183594 29.683594 27.128906 29.75 26.996094 29.683594 C 26.863281 29.617188 26.875 29.535156 26.945312 29.4375 C 27.011719 29.335938 27.085938 29.242188 27.144531 29.136719 C 27.183594 29.070312 27.21875 28.996094 27.230469 28.921875 C 27.320312 28.292969 27.394531 27.660156 27.496094 27.03125 C 27.589844 26.417969 27.71875 25.804688 27.816406 25.1875 C 27.960938 24.285156 28.097656 23.382812 28.230469 22.476562 C 28.367188 21.511719 28.695312 20.605469 29.15625 19.746094 C 29.285156 19.5 29.484375 19.285156 29.675781 19.078125 C 29.785156 18.957031 29.894531 18.988281 29.988281 19.125 C 30.070312 19.246094 30.148438 19.375 30.242188 19.519531 C 30.304688 19.386719 30.527344 19.332031 30.394531 19.160156 C 30.242188 18.964844 30.078125 18.777344 29.886719 18.628906 C 29.445312 18.289062 28.976562 17.980469 28.527344 17.648438 C 28.253906 17.445312 27.992188 17.226562 27.699219 16.996094 C 27.726562 17.070312 27.742188 17.121094 27.757812 17.171875 C 27.835938 17.386719 27.898438 17.605469 27.988281 17.8125 C 28.121094 18.121094 28.0625 18.402344 27.894531 18.671875 C 27.414062 19.4375 26.933594 20.207031 26.546875 21.027344 C 26.53125 21.066406 26.492188 21.132812 26.472656 21.132812 C 26.304688 21.109375 26.304688 21.25 26.257812 21.339844 C 26.175781 21.484375 26.109375 21.636719 26.015625 21.773438 C 25.507812 22.550781 24.996094 23.324219 24.488281 24.101562 C 24.441406 24.167969 24.40625 24.242188 24.367188 24.316406 C 24.472656 24.28125 24.550781 24.226562 24.628906 24.175781 C 24.929688 23.988281 25.222656 23.792969 25.527344 23.625 C 25.707031 23.523438 25.777344 23.566406 25.816406 23.761719 C 25.875 24.039062 25.90625 24.320312 25.976562 24.597656 C 26.101562 25.097656 26.246094 25.589844 26.378906 26.089844 C 26.5 26.554688 26.421875 26.71875 25.984375 26.933594 C 25.929688 26.960938 25.871094 26.984375 25.816406 27.011719 C 24.902344 27.417969 23.933594 27.648438 22.957031 27.824219 C 22.601562 27.886719 22.222656 27.878906 21.921875 27.59375 C 21.875 27.550781 21.808594 27.507812 21.746094 27.5 C 21.269531 27.421875 20.792969 27.324219 20.3125 27.292969 C 19.777344 27.257812 19.238281 27.289062 18.699219 27.289062 C 18.347656 27.289062 18 27.289062 17.65625 27.289062 C 17.550781 27.757812 17.457031 28.1875 17.371094 28.5625 C 17.507812 28.707031 17.621094 28.820312 17.722656 28.941406 C 17.820312 29.054688 17.898438 29.183594 17.992188 29.292969 C 18.171875 29.5 18.257812 29.730469 18.214844 30.003906 C 18.203125 30.085938 18.191406 30.171875 18.179688 30.253906 C 18.125 30.632812 18.089844 31.023438 17.875 31.34375 C 17.453125 31.964844 17.007812 32.570312 16.558594 33.171875 C 16.382812 33.410156 16.125 33.515625 15.824219 33.503906 C 15.554688 33.488281 15.285156 33.484375 15.019531 33.464844 C 14.804688 33.449219 14.636719 33.351562 14.53125 33.164062 C 14.511719 33.128906 14.515625 33.082031 14.507812 33.039062 C 14.550781 33.035156 14.597656 33.015625 14.632812 33.03125 C 14.882812 33.121094 15.140625 33.191406 15.375 33.316406 C 15.753906 33.515625 16.195312 33.5 16.464844 33.175781 C 16.832031 32.738281 17.160156 32.273438 17.5 31.816406 C 17.714844 31.527344 17.925781 31.234375 17.996094 30.871094 C 18.0625 30.539062 18.113281 30.203125 18.148438 29.863281 C 18.15625 29.75 18.109375 29.617188 18.046875 29.519531 C 17.910156 29.296875 17.753906 29.082031 17.589844 28.878906 C 17.527344 28.800781 17.421875 28.746094 17.328125 28.710938 C 17.21875 28.664062 17.089844 28.664062 16.984375 28.617188 C 16.910156 28.582031 16.824219 28.511719 16.796875 28.4375 C 16.535156 27.703125 16.035156 27.105469 15.636719 26.453125 C 15.582031 26.367188 15.464844 26.292969 15.363281 26.269531 C 15.160156 26.222656 14.949219 26.203125 14.738281 26.1875 C 14.246094 26.160156 13.753906 26.148438 13.265625 26.113281 C 13.160156 26.105469 13.050781 26.039062 12.96875 25.96875 C 12.910156 25.917969 12.890625 25.816406 12.855469 25.738281 C 12.929688 25.71875 13 25.695312 13.074219 25.683594 C 13.125 25.675781 13.179688 25.675781 13.230469 25.6875 C 13.734375 25.785156 14.242188 25.882812 14.746094 25.984375 C 14.941406 26.019531 15.132812 26.054688 15.355469 26.097656 Z M 24.289062 24.378906 C 24.332031 24.28125 24.359375 24.171875 24.417969 24.085938 C 24.828125 23.460938 25.253906 22.847656 25.65625 22.214844 C 25.886719 21.851562 26.082031 21.464844 26.285156 21.082031 C 26.324219 21.007812 26.335938 20.910156 26.339844 20.820312 C 26.34375 20.414062 26.316406 20.007812 26.347656 19.601562 C 26.402344 18.882812 26.488281 18.167969 26.574219 17.449219 C 26.605469 17.210938 26.660156 16.96875 26.726562 16.734375 C 26.753906 16.625 26.828125 16.523438 26.894531 16.425781 C 26.914062 16.394531 26.988281 16.367188 27.023438 16.378906 C 27.054688 16.390625 27.085938 16.460938 27.085938 16.5 C 27.066406 16.796875 27.042969 17.089844 27.011719 17.386719 C 26.972656 17.722656 26.929688 18.0625 26.882812 18.398438 C 26.824219 18.792969 26.765625 19.183594 26.695312 19.574219 C 26.613281 20.019531 26.523438 20.464844 26.4375 20.90625 C 26.429688 20.945312 26.4375 20.984375 26.46875 21.039062 C 26.507812 20.964844 26.546875 20.894531 26.585938 20.824219 C 26.976562 20.144531 27.363281 19.460938 27.757812 18.785156 C 27.898438 18.539062 28.046875 18.296875 27.980469 18 C 27.929688 17.78125 27.847656 17.566406 27.769531 17.355469 C 27.613281 16.953125 27.449219 16.554688 27.285156 16.15625 C 27.164062 15.855469 26.894531 15.722656 26.636719 15.574219 C 26.171875 15.304688 25.644531 15.226562 25.132812 15.09375 C 24.671875 14.976562 24.210938 14.859375 23.746094 14.753906 C 23.542969 14.710938 23.425781 14.601562 23.386719 14.398438 C 23.371094 14.3125 23.332031 14.226562 23.320312 14.136719 C 23.296875 13.992188 23.234375 13.910156 23.074219 13.882812 C 23.003906 13.871094 22.925781 13.777344 22.894531 13.703125 C 22.714844 13.269531 22.683594 12.8125 22.738281 12.347656 C 22.746094 12.410156 22.753906 12.46875 22.753906 12.53125 C 22.761719 12.902344 22.796875 13.265625 22.925781 13.621094 C 22.972656 13.75 23.035156 13.828125 23.1875 13.839844 C 23.246094 13.84375 23.324219 13.921875 23.347656 13.980469 C 23.402344 14.117188 23.445312 14.261719 23.46875 14.40625 C 23.496094 14.558594 23.585938 14.625 23.726562 14.660156 C 24.4375 14.839844 25.144531 15.027344 25.851562 15.203125 C 26.324219 15.320312 26.75 15.539062 27.144531 15.808594 C 27.246094 15.878906 27.308594 16.023438 27.359375 16.144531 C 27.480469 16.421875 27.519531 16.742188 27.773438 16.949219 C 28.109375 17.222656 28.445312 17.5 28.792969 17.757812 C 29.183594 18.046875 29.601562 18.300781 29.984375 18.59375 C 30.183594 18.75 30.339844 18.960938 30.511719 19.148438 C 30.582031 19.226562 30.566406 19.304688 30.488281 19.375 C 30.464844 19.398438 30.441406 19.421875 30.417969 19.449219 C 30.246094 19.660156 30.214844 19.65625 30.0625 19.421875 C 30.027344 19.367188 29.996094 19.316406 29.960938 19.261719 C 29.839844 19.066406 29.808594 19.070312 29.632812 19.226562 C 29.496094 19.34375 29.472656 19.449219 29.542969 19.621094 C 29.742188 20.105469 29.910156 20.597656 30.09375 21.085938 C 30.105469 21.121094 30.128906 21.167969 30.15625 21.175781 C 30.402344 21.265625 30.527344 21.476562 30.664062 21.667969 C 31.082031 22.238281 31.363281 22.878906 31.597656 23.539062 C 31.65625 23.703125 31.648438 23.898438 31.632812 24.074219 C 31.613281 24.355469 31.621094 24.613281 31.828125 24.839844 C 32.042969 25.070312 32.226562 25.324219 32.425781 25.566406 C 32.640625 25.824219 32.703125 26.136719 32.761719 26.449219 C 32.867188 27.039062 32.980469 27.628906 33.066406 28.222656 C 33.148438 28.804688 33.164062 29.390625 33.082031 29.976562 C 33.042969 30.246094 33.046875 30.53125 33.082031 30.800781 C 33.222656 31.847656 33.015625 32.796875 32.433594 33.691406 C 31.785156 34.691406 31.066406 35.617188 30.199219 36.433594 C 29.953125 36.667969 29.753906 36.953125 29.542969 37.222656 C 29.5 37.277344 29.476562 37.371094 29.484375 37.445312 C 29.59375 38.722656 29.652344 40.007812 29.628906 41.292969 C 29.628906 41.351562 29.613281 41.410156 29.601562 41.46875 C 29.585938 41.46875 29.570312 41.464844 29.550781 41.464844 C 29.550781 41.222656 29.554688 40.984375 29.550781 40.742188 C 29.539062 40.152344 29.53125 39.566406 29.511719 38.976562 C 29.5 38.636719 29.445312 38.296875 29.441406 37.957031 C 29.433594 37.210938 29.277344 36.496094 28.949219 35.832031 C 28.660156 35.253906 28.492188 34.640625 28.300781 34.027344 C 28.054688 33.242188 27.695312 32.507812 27.277344 31.800781 C 27.261719 31.777344 27.246094 31.757812 27.207031 31.707031 C 27.164062 32.027344 27.109375 32.3125 27.09375 32.601562 C 27.054688 33.1875 27.046875 33.777344 27.015625 34.363281 C 26.988281 34.890625 27.105469 35.378906 27.34375 35.84375 C 27.375 35.902344 27.402344 35.964844 27.429688 36.027344 C 27.433594 36.035156 27.425781 36.050781 27.421875 36.074219 C 27.398438 36.050781 27.375 36.035156 27.363281 36.015625 C 27.148438 35.613281 26.964844 35.195312 26.960938 34.726562 C 26.960938 34.128906 26.96875 33.527344 27 32.929688 C 27.015625 32.582031 27.085938 32.242188 27.121094 31.898438 C 27.140625 31.722656 27.140625 31.558594 27.042969 31.386719 C 26.6875 30.785156 26.519531 30.109375 26.378906 29.429688 C 26.269531 28.90625 26.195312 28.378906 26.097656 27.855469 C 26.078125 27.753906 26.03125 27.65625 25.992188 27.546875 C 25.222656 27.992188 24.394531 28.210938 23.5625 28.386719 C 23.171875 28.46875 22.757812 28.460938 22.351562 28.476562 C 22.1875 28.480469 22.125 28.527344 22.136719 28.691406 C 22.183594 29.238281 22.21875 29.78125 22.269531 30.328125 C 22.320312 30.859375 22.386719 31.386719 22.445312 31.917969 C 22.5 32.421875 22.585938 32.921875 22.605469 33.425781 C 22.636719 34.207031 22.617188 34.992188 22.628906 35.773438 C 22.632812 36.183594 22.671875 36.59375 22.671875 37.003906 C 22.671875 37.234375 22.808594 37.375 22.914062 37.546875 C 23.015625 37.714844 23.0625 37.925781 23.09375 38.121094 C 23.175781 38.660156 23.238281 39.203125 23.296875 39.742188 C 23.335938 40.078125 23.351562 40.414062 23.375 40.75 C 23.390625 40.984375 23.402344 41.222656 23.417969 41.457031 C 23.398438 41.460938 23.382812 41.460938 23.363281 41.460938 C 23.347656 41.265625 23.332031 41.066406 23.3125 40.871094 C 23.257812 40.289062 23.210938 39.703125 23.144531 39.121094 C 23.097656 38.683594 23.039062 38.242188 22.964844 37.804688 C 22.945312 37.695312 22.863281 37.59375 22.789062 37.496094 C 22.800781 38.832031 23.039062 40.140625 23.175781 41.460938 C 22.949219 40.101562 22.753906 38.742188 22.628906 37.367188 C 22.613281 38.734375 22.757812 40.09375 22.820312 41.457031 C 22.804688 41.460938 22.789062 41.460938 22.773438 41.464844 C 22.757812 41.332031 22.738281 41.203125 22.730469 41.070312 C 22.703125 40.628906 22.683594 40.183594 22.65625 39.738281 C 22.613281 38.980469 22.566406 38.222656 22.527344 37.464844 C 22.523438 37.378906 22.59375 37.289062 22.597656 37.199219 C 22.605469 37.0625 22.585938 36.921875 22.582031 36.78125 C 22.578125 36.425781 22.570312 36.074219 22.570312 35.71875 C 22.566406 35.152344 22.574219 34.589844 22.570312 34.023438 C 22.566406 33.726562 22.546875 33.429688 22.519531 33.132812 C 22.476562 32.675781 22.421875 32.21875 22.371094 31.761719 C 22.320312 31.339844 22.261719 30.917969 22.214844 30.496094 C 22.167969 30.085938 22.121094 29.679688 22.089844 29.273438 C 22.070312 29.035156 22.074219 28.792969 22.070312 28.554688 C 22.070312 28.433594 22.144531 28.386719 22.261719 28.394531 C 22.34375 28.398438 22.421875 28.390625 22.503906 28.398438 C 23.117188 28.4375 23.703125 28.316406 24.285156 28.140625 C 24.84375 27.96875 25.40625 27.808594 25.910156 27.496094 C 26.019531 27.429688 26.066406 27.5 26.085938 27.578125 C 26.164062 27.875 26.246094 28.171875 26.292969 28.472656 C 26.453125 29.445312 26.613281 30.421875 27.085938 31.308594 C 27.324219 31.75 27.578125 32.179688 27.8125 32.625 C 28.179688 33.320312 28.414062 34.0625 28.640625 34.820312 C 28.640625 34.777344 28.644531 34.734375 28.640625 34.691406 C 28.632812 34.640625 28.621094 34.59375 28.609375 34.542969 C 28.523438 34.023438 28.5 33.492188 28.316406 32.988281 C 28.078125 32.332031 27.691406 31.761719 27.285156 31.203125 C 27.226562 31.125 27.179688 31.039062 27.113281 30.96875 C 26.875 30.699219 26.832031 30.367188 26.792969 30.035156 C 26.746094 29.632812 26.707031 29.230469 26.6875 28.824219 C 26.671875 28.363281 26.539062 27.929688 26.402344 27.5 C 26.359375 27.355469 26.242188 27.296875 26.089844 27.335938 C 25.46875 27.503906 24.851562 27.671875 24.230469 27.832031 C 23.550781 28.003906 22.859375 28.054688 22.160156 28.042969 C 21.683594 28.039062 21.210938 28.035156 20.734375 28.042969 C 20.101562 28.058594 19.464844 28.085938 18.832031 28.113281 C 18.535156 28.128906 18.238281 28.152344 17.945312 28.1875 C 17.890625 28.191406 17.820312 28.257812 17.804688 28.308594 C 17.777344 28.4375 17.761719 28.570312 17.769531 28.699219 C 17.773438 28.761719 17.824219 28.832031 17.875 28.878906 C 18.03125 29.019531 18.195312 29.152344 18.359375 29.289062 C 18.519531 29.417969 18.550781 29.601562 18.550781 29.78125 C 18.542969 30.214844 18.527344 30.648438 18.472656 31.074219 C 18.449219 31.242188 18.339844 31.421875 18.21875 31.546875 C 18.050781 31.714844 18.011719 31.898438 18.011719 32.113281 C 18.023438 33.015625 17.941406 33.90625 17.660156 34.769531 C 17.570312 35.042969 17.4375 35.304688 17.308594 35.5625 C 17.265625 35.652344 17.167969 35.722656 17.082031 35.785156 C 17.585938 35.160156 17.75 34.417969 17.839844 33.65625 C 17.90625 33.113281 17.917969 32.566406 17.949219 32.019531 C 17.953125 31.984375 17.945312 31.945312 17.941406 31.859375 C 17.742188 32.101562 17.566406 32.308594 17.394531 32.519531 C 16.992188 33.023438 16.597656 33.535156 16.1875 34.035156 C 16.03125 34.226562 16.0625 34.449219 16.058594 34.652344 C 16.03125 36.023438 16.019531 37.398438 16.019531 38.769531 C 16.019531 39.308594 16.058594 39.84375 16.085938 40.382812 C 16.105469 40.742188 16.140625 41.101562 16.171875 41.480469 C 16.054688 41.382812 15.960938 40.195312 15.953125 39.121094 C 15.949219 38.320312 15.917969 37.519531 15.925781 36.71875 C 15.929688 35.917969 15.972656 35.121094 15.996094 34.316406 C 15.976562 34.332031 15.957031 34.34375 15.945312 34.363281 C 15.667969 34.785156 15.257812 34.996094 14.773438 35.035156 C 14.40625 35.066406 14.03125 35.066406 13.667969 35.019531 C 13.246094 34.96875 12.960938 34.644531 12.65625 34.382812 C 11.382812 33.292969 10.496094 31.898438 9.59375 30.515625 C 9.527344 30.414062 9.464844 30.316406 9.375 30.183594 C 9.324219 30.429688 9.277344 30.636719 9.238281 30.84375 C 9.109375 31.546875 8.898438 32.21875 8.492188 32.816406 C 8.226562 33.210938 8.121094 33.65625 8.0625 34.128906 C 7.972656 34.871094 7.847656 35.609375 7.730469 36.351562 C 7.632812 36.976562 7.523438 37.601562 7.414062 38.226562 C 7.363281 38.519531 7.304688 38.816406 7.253906 39.109375 C 7.226562 39.265625 7.203125 39.425781 7.417969 39.503906 C 7.5 39.160156 7.578125 38.816406 7.664062 38.472656 C 8.046875 36.976562 8.332031 35.453125 8.835938 33.992188 C 8.957031 33.636719 9.085938 33.285156 9.21875 32.9375 C 9.25 32.855469 9.304688 32.785156 9.351562 32.710938 C 9.375 32.71875 9.402344 32.722656 9.425781 32.726562 C 9.429688 32.855469 9.445312 32.988281 9.433594 33.113281 C 9.347656 33.871094 9.09375 34.578125 8.828125 35.28125 C 8.394531 36.441406 8.058594 37.625 7.761719 38.824219 C 7.714844 39.007812 7.695312 39.199219 7.699219 39.390625 C 7.699219 39.457031 7.789062 39.539062 7.855469 39.585938 C 7.960938 39.660156 8.089844 39.703125 8.195312 39.777344 C 8.296875 39.847656 8.375 39.9375 8.324219 40.101562 C 8.015625 40.023438 7.730469 39.898438 7.480469 39.691406 C 7.375 39.925781 7.402344 40.046875 7.609375 40.167969 C 7.789062 40.273438 7.980469 40.367188 8.164062 40.46875 C 8.398438 40.601562 8.640625 40.550781 8.882812 40.507812 C 9.363281 40.425781 9.839844 40.300781 10.324219 40.273438 C 10.691406 40.253906 11.070312 40.335938 11.433594 40.425781 C 12.347656 40.644531 13.253906 40.894531 14.164062 41.132812 C 14.371094 41.1875 14.554688 41.285156 14.707031 41.46875 C 14.65625 41.460938 14.613281 41.46875 14.597656 41.453125 C 14.367188 41.21875 14.050781 41.179688 13.757812 41.101562 C 12.832031 40.851562 11.90625 40.605469 10.972656 40.382812 C 10.464844 40.261719 9.953125 40.34375 9.449219 40.457031 C 9.167969 40.519531 8.882812 40.582031 8.597656 40.613281 C 8.460938 40.628906 8.308594 40.605469 8.183594 40.550781 C 7.960938 40.453125 7.75 40.320312 7.535156 40.203125 C 7.371094 40.113281 7.320312 39.960938 7.367188 39.796875 C 7.40625 39.664062 7.367188 39.597656 7.269531 39.527344 C 7.160156 39.449219 7.140625 39.347656 7.164062 39.210938 C 7.292969 38.519531 7.410156 37.828125 7.527344 37.136719 C 7.628906 36.542969 7.734375 35.953125 7.828125 35.359375 C 7.894531 34.917969 7.964844 34.472656 8.003906 34.023438 C 8.046875 33.542969 8.21875 33.109375 8.484375 32.714844 C 8.898438 32.09375 9.074219 31.394531 9.214844 30.679688 C 9.242188 30.535156 9.277344 30.390625 9.285156 30.246094 C 9.292969 30.160156 9.28125 30.054688 9.234375 29.984375 C 9.074219 29.746094 8.886719 29.53125 8.898438 29.21875 C 8.898438 29.167969 8.839844 29.109375 8.800781 29.0625 C 8.488281 28.675781 8.304688 28.234375 8.25 27.742188 C 8.210938 27.371094 8.140625 26.992188 8.15625 26.621094 C 8.203125 25.699219 8.375 24.796875 8.707031 23.929688 C 8.839844 23.582031 8.945312 23.21875 9.042969 22.859375 C 9.160156 22.417969 9.410156 22.082031 9.789062 21.839844 C 9.820312 21.820312 9.847656 21.800781 9.878906 21.777344 C 9.457031 21.539062 9.367188 21.117188 9.292969 20.707031 C 9.265625 20.566406 9.328125 20.386719 9.402344 20.253906 C 9.878906 19.414062 10.386719 18.59375 11.054688 17.890625 C 11.242188 17.695312 11.488281 17.5625 11.707031 17.398438 C 11.765625 17.355469 11.839844 17.316406 11.871094 17.253906 C 12.417969 16.226562 13.308594 15.582031 14.304688 15.046875 C 14.933594 14.710938 15.601562 14.472656 16.28125 14.269531 C 16.402344 14.234375 16.523438 14.210938 16.644531 14.183594 C 16.660156 14.179688 16.683594 14.171875 16.695312 14.179688 C 16.945312 14.316406 17.148438 14.132812 17.367188 14.078125 C 17.613281 14.015625 17.859375 13.945312 18.109375 13.90625 C 18.320312 13.875 18.542969 13.875 18.757812 13.867188 C 18.945312 13.863281 19.125 14.003906 19.140625 14.183594 C 19.160156 14.429688 19.269531 14.617188 19.449219 14.769531 C 19.957031 15.199219 20.515625 15.519531 21.199219 15.511719 C 21.617188 15.503906 22.011719 15.359375 22.390625 15.183594 C 22.609375 15.078125 22.824219 14.960938 23.039062 14.84375 C 23.308594 14.695312 23.195312 14.449219 23.195312 14.230469 C 23.191406 14.199219 23.171875 14.167969 23.152344 14.109375 C 23.078125 14.160156 23.007812 14.199219 22.953125 14.25 C 22.597656 14.59375 22.164062 14.804688 21.691406 14.933594 C 21.640625 14.949219 21.585938 14.9375 21.53125 14.9375 C 21.523438 14.914062 21.515625 14.890625 21.507812 14.867188 C 21.652344 14.773438 21.792969 14.675781 21.945312 14.589844 C 22.1875 14.457031 22.441406 14.335938 22.683594 14.195312 C 22.871094 14.089844 22.882812 14.03125 22.792969 13.839844 C 22.632812 13.496094 22.539062 13.136719 22.554688 12.753906 C 22.5625 12.609375 22.554688 12.46875 22.554688 12.324219 C 22.542969 12.316406 22.527344 12.3125 22.511719 12.304688 C 22.484375 12.347656 22.433594 12.386719 22.433594 12.429688 C 22.429688 12.820312 22.164062 13.070312 21.945312 13.34375 C 21.726562 13.617188 21.5 13.878906 21.273438 14.144531 C 21.078125 14.367188 20.847656 14.539062 20.570312 14.648438 C 20.445312 14.695312 20.332031 14.683594 20.238281 14.59375 C 20.105469 14.460938 19.984375 14.320312 19.859375 14.179688 C 19.796875 14.105469 19.824219 14.046875 19.90625 14.003906 C 20.027344 13.945312 20.148438 13.882812 20.265625 13.800781 C 19.816406 13.933594 19.402344 13.882812 19.019531 13.585938 C 19.109375 13.425781 19.28125 13.375 19.445312 13.328125 C 19.667969 13.265625 19.894531 13.222656 20.121094 13.167969 C 20.328125 13.121094 20.535156 13.070312 20.789062 13.011719 C 20.640625 13.191406 20.457031 13.253906 20.289062 13.328125 C 20.109375 13.410156 19.929688 13.496094 19.738281 13.542969 C 19.554688 13.585938 19.359375 13.578125 19.128906 13.597656 C 19.449219 13.796875 19.75 13.886719 20.085938 13.773438 C 20.109375 13.765625 20.132812 13.75 20.152344 13.75 C 20.210938 13.753906 20.273438 13.765625 20.335938 13.777344 C 20.300781 13.824219 20.265625 13.871094 20.226562 13.914062 C 20.214844 13.925781 20.195312 13.929688 20.179688 13.933594 C 19.777344 14.117188 19.851562 14.078125 20.097656 14.382812 C 20.316406 14.652344 20.453125 14.679688 20.742188 14.488281 C 20.964844 14.339844 21.167969 14.148438 21.347656 13.949219 C 21.652344 13.605469 21.9375 13.25 22.207031 12.882812 C 22.292969 12.769531 22.339844 12.601562 22.34375 12.457031 C 22.363281 12.082031 22.351562 11.703125 22.351562 11.328125 C 22.351562 11.171875 22.285156 10.976562 22.570312 10.980469 C 22.539062 10.902344 22.519531 10.847656 22.480469 10.742188 C 22.554688 10.808594 22.585938 10.839844 22.648438 10.898438 C 22.683594 10.78125 22.726562 10.679688 22.746094 10.578125 C 22.824219 10.167969 22.828125 9.757812 22.726562 9.355469 C 22.640625 9.003906 22.414062 8.949219 22.164062 9.214844 C 22.09375 9.289062 22.039062 9.375 21.984375 9.460938 C 21.761719 9.820312 21.546875 10.183594 21.324219 10.542969 C 21.238281 10.683594 21.191406 10.828125 21.207031 10.992188 C 21.234375 11.289062 21.121094 11.5 20.84375 11.644531 C 20.503906 11.820312 20.167969 12.007812 19.78125 12.042969 C 19.660156 12.050781 19.519531 12.003906 19.402344 11.949219 C 19.300781 11.898438 19.226562 11.785156 19.121094 11.730469 C 19.042969 11.6875 18.929688 11.675781 18.84375 11.691406 C 18.808594 11.699219 18.789062 11.832031 18.785156 11.910156 C 18.773438 12.097656 18.78125 12.285156 18.761719 12.46875 C 18.746094 12.605469 18.769531 12.710938 18.898438 12.761719 C 19.027344 12.816406 19.164062 12.847656 19.300781 12.746094 C 19.417969 12.660156 19.546875 12.585938 19.679688 12.519531 C 19.730469 12.496094 19.796875 12.507812 19.859375 12.5 C 19.863281 12.519531 19.867188 12.542969 19.871094 12.5625 C 19.820312 12.582031 19.769531 12.621094 19.722656 12.617188 C 19.574219 12.605469 19.46875 12.667969 19.367188 12.757812 C 19.195312 12.914062 18.882812 12.898438 18.742188 12.710938 C 18.695312 12.648438 18.703125 12.542969 18.6875 12.476562 C 18.394531 12.558594 18.097656 12.652344 17.796875 12.734375 C 17.480469 12.816406 17.214844 12.746094 17.003906 12.480469 C 16.898438 12.351562 16.824219 12.1875 16.628906 12.148438 C 16.59375 12.140625 16.546875 12.046875 16.546875 11.992188 C 16.546875 11.957031 16.613281 11.902344 16.660156 11.886719 C 16.882812 11.800781 17.105469 11.726562 17.359375 11.636719 C 17.175781 11.363281 16.984375 11.113281 16.835938 10.835938 C 16.691406 10.5625 16.570312 10.273438 16.476562 9.976562 C 16.378906 9.675781 16.339844 9.359375 16.261719 9.050781 C 16.21875 8.886719 16.136719 8.734375 16.097656 8.570312 C 15.984375 8.132812 16.117188 7.726562 16.363281 7.378906 C 16.582031 7.074219 16.863281 6.820312 17.125 6.546875 C 17.210938 6.457031 17.332031 6.394531 17.40625 6.296875 C 17.460938 6.222656 17.46875 6.113281 17.503906 5.996094 C 17.324219 6.007812 17.195312 6.03125 17.066406 6.023438 C 16.886719 6.015625 16.71875 5.960938 16.609375 5.796875 C 16.59375 5.769531 16.570312 5.734375 16.542969 5.722656 C 16.1875 5.609375 16.132812 5.292969 16.140625 5.003906 C 16.15625 4.496094 16.382812 4.074219 16.820312 3.789062 C 17.003906 3.667969 17.207031 3.625 17.425781 3.683594 C 17.460938 3.691406 17.519531 3.6875 17.546875 3.664062 C 17.824219 3.421875 18.164062 3.460938 18.492188 3.472656 C 18.785156 3.484375 18.957031 3.660156 19.082031 3.917969 C 19.28125 4.316406 19.382812 4.738281 19.449219 5.171875 C 19.480469 5.375 19.371094 5.554688 19.144531 5.660156 C 18.964844 5.742188 18.777344 5.804688 18.601562 5.898438 C 18.777344 5.855469 18.949219 5.796875 19.128906 5.765625 C 19.898438 5.632812 20.589844 5.804688 21.222656 6.265625 C 21.851562 6.726562 22.09375 7.378906 22.238281 8.097656 C 22.292969 8.375 22.339844 8.652344 22.394531 8.933594 C 22.6875 9.007812 22.832031 9.164062 22.847656 9.550781 C 22.859375 9.933594 22.84375 10.328125 22.777344 10.707031 C 22.738281 10.917969 22.667969 11.109375 22.714844 11.335938 C 22.75 11.515625 22.6875 11.683594 22.492188 11.769531 C 22.46875 11.777344 22.449219 11.828125 22.449219 11.863281 C 22.441406 11.980469 22.445312 12.101562 22.445312 12.234375 C 22.597656 12.234375 22.628906 12.316406 22.621094 12.453125 C 22.582031 12.957031 22.640625 13.441406 22.882812 13.894531 C 22.964844 14.054688 22.855469 14.160156 22.738281 14.230469 C 22.527344 14.355469 22.304688 14.460938 22.089844 14.578125 C 21.921875 14.671875 21.757812 14.765625 21.589844 14.859375 C 21.597656 14.875 21.605469 14.890625 21.613281 14.910156 C 21.742188 14.867188 21.871094 14.835938 21.996094 14.785156 C 22.351562 14.640625 22.679688 14.453125 22.957031 14.175781 C 23.007812 14.125 23.105469 14.09375 23.179688 14.09375 C 23.210938 14.09375 23.25 14.210938 23.261719 14.277344 C 23.332031 14.65625 23.265625 14.8125 22.925781 14.988281 C 22.402344 15.261719 21.863281 15.507812 21.265625 15.566406 C 20.898438 15.605469 20.554688 15.492188 20.226562 15.347656 C 19.832031 15.167969 19.46875 14.941406 19.210938 14.585938 C 19.144531 14.5 19.109375 14.382812 19.089844 14.273438 C 19.042969 14.023438 18.941406 13.921875 18.699219 13.925781 C 18.140625 13.933594 17.601562 14.035156 17.082031 14.242188 C 17.011719 14.269531 16.933594 14.289062 16.867188 14.3125 C 16.992188 14.941406 17.132812 15.5625 17.234375 16.191406 C 17.300781 16.609375 17.363281 17.039062 17.347656 17.460938 C 17.3125 18.285156 17.460938 19.078125 17.640625 19.871094 C 17.773438 20.460938 17.867188 21.0625 17.933594 21.664062 C 17.984375 22.117188 17.976562 22.574219 17.96875 23.027344 C 17.960938 23.339844 17.894531 23.648438 17.871094 23.960938 C 17.839844 24.410156 17.816406 24.859375 17.796875 25.308594 C 17.78125 25.738281 17.785156 26.167969 17.765625 26.59375 C 17.753906 26.808594 17.703125 27.019531 17.667969 27.226562 C 17.859375 27.226562 18.042969 27.230469 18.230469 27.226562 C 18.726562 27.214844 19.226562 27.199219 19.722656 27.195312 C 20.386719 27.1875 21.042969 27.257812 21.6875 27.40625 C 21.789062 27.429688 21.902344 27.472656 21.976562 27.542969 C 22.25 27.800781 22.585938 27.820312 22.910156 27.765625 C 23.882812 27.597656 24.84375 27.371094 25.75 26.964844 C 26.503906 26.628906 26.417969 26.539062 26.261719 25.902344 C 26.132812 25.375 25.976562 24.851562 25.84375 24.324219 C 25.800781 24.148438 25.78125 23.96875 25.757812 23.789062 C 25.738281 23.644531 25.664062 23.609375 25.546875 23.683594 C 25.238281 23.875 24.933594 24.070312 24.628906 24.265625 C 24.535156 24.324219 24.441406 24.375 24.347656 24.429688 C 24.328125 24.410156 24.308594 24.394531 24.289062 24.378906 " fill-opacity="1" fill-rule="nonzero"/></g><path fill="#000000" d="M 7.847656 41.371094 L 35.414062 41.371094 L 35.414062 42.042969 L 7.847656 42.042969 Z M 7.847656 41.371094 " fill-opacity="1" fill-rule="nonzero"/><path stroke-linecap="butt" transform="matrix(0.167828, 0, 0, 0.167828, -2.112882, 34.155126)" fill="none" stroke-linejoin="miter" d="M 75.386493 6.872928 C 66.541859 6.872928 59.349774 14.27449 59.349774 23.421704 C 59.349774 32.568918 66.541859 39.993756 75.386493 39.993756 C 84.254403 39.993756 91.423212 32.568918 91.423212 23.421704 C 91.423212 14.27449 84.254403 6.872928 75.386493 6.872928 Z M 75.386493 7.571188 C 82.229447 7.571188 87.745706 14.693447 87.745706 23.421704 C 87.745706 32.219788 82.229447 39.342046 75.386493 39.342046 C 68.566814 39.342046 63.004005 32.219788 63.004005 23.421704 C 63.004005 14.693447 68.566814 7.571188 75.386493 7.571188 Z M 111.952073 6.872928 C 102.80486 6.872928 95.380022 14.27449 95.380022 23.421704 C 95.380022 32.615469 102.85141 39.993756 111.952073 39.993756 C 116.583869 39.993756 120.843259 38.713611 123.845779 36.339525 L 123.845779 32.615469 C 119.726042 38.224829 112.231378 41.553205 105.947032 37.480018 C 101.873845 34.826627 99.104078 29.519847 99.057528 23.421704 C 99.057528 21.792429 99.988542 20.954517 101.617816 20.907966 C 104.759989 20.907966 108.251292 24.399269 111.952073 25.027704 C 115.536478 25.563037 118.445897 23.654458 117.445057 19.674372 C 117.026101 21.536401 115.140797 21.792429 113.534797 21.629502 C 110.462451 21.210546 107.529756 18.929561 104.224656 18.929561 C 102.409179 18.88301 100.477324 19.418343 99.173904 21.094169 C 100.104919 13.436578 105.45825 7.571188 111.952073 7.571188 C 117.468332 7.571188 121.890649 11.993506 119.98207 17.346837 C 122.472533 17.370112 123.845779 15.88049 123.845779 13.878809 C 123.845779 11.341796 121.099287 9.293565 118.98123 8.269449 C 116.816622 7.31516 114.349435 6.872928 111.952073 6.872928 Z M 138.858382 39.993756 C 142.070381 39.993756 146.143568 39.435147 149.052987 37.480018 C 154.057188 34.174918 153.917536 27.494891 149.541769 23.957037 C 146.190118 21.210546 140.580758 21.047618 136.461021 20.023503 C 133.062819 19.139039 129.455139 17.556315 129.80427 13.832259 C 130.106849 10.527158 133.342123 8.595304 136.344644 7.920319 C 140.417831 6.989305 145.398756 7.873768 147.63319 10.853013 C 148.959886 12.552114 149.448668 14.856374 148.564205 17.346837 C 151.054667 17.370112 152.381363 15.88049 152.381363 13.878809 C 152.381363 11.341796 149.681422 9.293565 147.563364 8.269449 C 145.352206 7.31516 142.908294 6.872928 140.487657 6.872928 C 136.204992 6.872928 130.246501 7.827217 128.081893 12.063332 C 126.801749 14.553794 127.104329 17.695967 128.919806 19.930401 C 132.45766 24.189791 139.812672 23.863936 144.677221 25.609587 C 149.634871 27.308688 152.24171 32.452541 148.308176 36.292975 C 144.653945 39.877379 135.948963 40.668741 132.15508 36.595554 C 130.50253 34.826627 129.80427 32.312889 130.781834 29.519847 C 128.291372 29.519847 126.964676 31.032745 126.964676 32.987874 C 126.964676 35.524888 129.664617 37.61967 131.782675 38.597235 C 133.947283 39.598075 136.437745 39.993756 138.858382 39.993756 Z M 182.360018 6.872928 L 156.617477 6.872928 L 156.617477 10.573709 C 159.922577 9.340115 162.436315 7.710841 167.649994 7.571188 L 167.649994 39.993756 L 171.3275 39.993756 L 171.3275 7.571188 C 176.541179 7.710841 179.054918 9.340115 182.360018 10.573709 Z M 186.293553 39.993756 L 189.971058 39.993756 L 189.971058 6.872928 L 186.293553 6.872928 Z M 219.693685 39.993756 L 219.693685 6.872928 L 216.016179 6.872928 C 216.947193 14.251215 218.180787 20.209705 218.71612 29.450021 C 213.199861 21.14072 205.425893 13.62278 198.838968 6.872928 L 193.927869 6.872928 L 193.927869 39.993756 L 197.605374 39.993756 C 196.371781 30.334484 194.695955 23.026023 194.602854 7.571188 C 201.538909 14.553794 218.809221 31.428426 219.041975 39.993756 Z M 219.693685 39.993756 " stroke="#000000" stroke-width="2.457535" stroke-opacity="1" stroke-miterlimit="4"/><path fill="#000000" d="M 35.414062 41.371094 L 38.660156 41.371094 L 38.660156 42.042969 L 35.414062 42.042969 Z M 35.414062 41.371094 " fill-opacity="1" fill-rule="nonzero"/><path fill="#000000" d="M 38.660156 41.371094 L 64.753906 41.371094 L 64.753906 42.042969 L 38.660156 42.042969 Z M 38.660156 41.371094 " fill-opacity="1" fill-rule="nonzero"/><path stroke-linecap="butt" transform="matrix(0.167828, 0, 0, 0.167828, -2.112882, 34.155126)" fill="none" stroke-linejoin="miter" d="M 254.536889 39.993756 C 257.748888 39.993756 261.822075 39.435147 264.731494 37.480018 C 269.735695 34.174918 269.596043 27.494891 265.220276 23.957037 C 261.868626 21.210546 256.259265 21.047618 252.139528 20.023503 C 248.741326 19.139039 245.110371 17.556315 245.459501 13.832259 C 245.785356 10.527158 248.997355 8.595304 252.023151 7.920319 C 256.073062 6.989305 261.053988 7.873768 263.311697 10.853013 C 264.638393 12.552114 265.127175 14.856374 264.242712 17.346837 C 266.733174 17.370112 268.05987 15.88049 268.05987 13.878809 C 268.05987 11.341796 265.359929 9.293565 263.241871 8.269449 C 261.030713 7.31516 258.586801 6.872928 256.166164 6.872928 C 251.883499 6.872928 245.901733 7.827217 243.7604 12.063332 C 242.456981 14.553794 242.782836 17.695967 244.598313 19.930401 C 248.112892 24.189791 255.491179 23.863936 260.355728 25.609587 C 265.313378 27.308688 267.920217 32.452541 263.986683 36.292975 C 260.309177 39.877379 251.604195 40.668741 247.810312 36.595554 C 246.181037 34.826627 245.459501 32.312889 246.437066 29.519847 C 243.969879 29.519847 242.643183 31.032745 242.643183 32.987874 C 242.643183 35.524888 245.343125 37.61967 247.461182 38.597235 C 249.62579 39.598075 252.092977 39.993756 254.536889 39.993756 Z M 298.038525 6.872928 L 272.272709 6.872928 L 272.272709 10.573709 C 275.601084 9.340115 278.114822 7.710841 283.328501 7.571188 L 283.328501 39.993756 L 287.006007 39.993756 L 287.006007 7.571188 C 292.196411 7.710841 294.733425 9.340115 298.038525 10.573709 Z M 318.008778 6.872928 C 309.164144 6.872928 301.97206 14.27449 301.97206 23.421704 C 301.97206 32.568918 309.164144 39.993756 318.008778 39.993756 C 326.876688 39.993756 334.045497 32.568918 334.045497 23.421704 C 334.045497 14.27449 326.876688 6.872928 318.008778 6.872928 Z M 318.008778 7.571188 C 324.851732 7.571188 330.367991 14.693447 330.367991 23.421704 C 330.367991 32.219788 324.851732 39.342046 318.008778 39.342046 C 311.1891 39.342046 305.62629 32.219788 305.62629 23.421704 C 305.62629 14.693447 311.1891 7.571188 318.008778 7.571188 Z M 338.002307 6.872928 L 338.002307 39.993756 L 341.679813 39.993756 L 341.679813 7.571188 L 351.478737 7.571188 C 355.505373 7.571188 359.345806 10.806463 359.345806 15.438258 C 359.345806 19.88385 357.041546 22.979472 352.200273 23.258777 C 349.267578 23.421704 347.033144 23.212226 344.589232 25.330283 L 344.938362 25.725964 C 347.40555 23.701008 349.663259 24.096689 351.478737 26.866457 C 354.132127 31.032745 355.6683 34.780077 357.926009 38.899814 C 358.321691 39.598075 358.810473 39.993756 360.067342 39.993756 L 363.465544 39.993756 C 362.744008 39.551524 361.743167 38.061902 361.347486 37.386916 C 359.252705 34.035265 357.483778 29.124166 354.783837 25.516486 C 354.36488 24.841501 353.782997 24.306168 353.038185 23.957037 C 358.298415 23.957037 363.046587 21.210546 363.046587 15.438258 C 363.046587 10.084927 358.740647 6.872928 354.01575 6.872928 Z M 383.109942 6.872928 C 373.962728 6.872928 366.53789 14.27449 366.53789 23.421704 C 366.53789 32.615469 374.009279 39.993756 383.109942 39.993756 C 387.741737 39.993756 391.977852 38.713611 395.003648 36.339525 L 395.003648 32.615469 C 390.88391 38.224829 383.389246 41.553205 377.104901 37.480018 C 373.031714 34.826627 370.261947 29.519847 370.215396 23.421704 C 370.215396 21.792429 371.14641 20.954517 372.775685 20.907966 C 375.917858 20.907966 379.409161 24.399269 383.109942 25.027704 C 386.694346 25.563037 389.603766 23.654458 388.602925 19.674372 C 388.183969 21.536401 386.298665 21.792429 384.692666 21.629502 C 381.620319 21.210546 378.687625 18.929561 375.382525 18.929561 C 373.567047 18.88301 371.635193 19.418343 370.331773 21.094169 C 371.262787 13.436578 376.616118 7.571188 383.109942 7.571188 C 388.626201 7.571188 393.048518 11.993506 391.139939 17.346837 C 393.630402 17.370112 395.003648 15.88049 395.003648 13.878809 C 395.003648 11.341796 392.257156 9.293565 390.139099 8.269449 C 387.974491 7.31516 385.507303 6.872928 383.109942 6.872928 Z M 383.109942 6.872928 " stroke="#000000" stroke-width="2.457535" stroke-opacity="1" stroke-miterlimit="4"/></svg>